HIERARCHY
ROOT SpineBase
{
  OFFSET 0.000000 0.000000 0.000000
  CHANNELS 6 Xposition Yposition Zposition Zrotation Xrotation Yrotation
  JOINT SpineMid
  {
    OFFSET 0.000000 29.282831 0.000000
    CHANNELS 3 Zrotation Xrotation Yrotation
    JOINT SpineShoulder
    {
      OFFSET 0.058884 21.608358 -0.719960
      CHANNELS 3 Zrotation Xrotation Yrotation
      JOINT Neck
      {
        OFFSET 0.035755 7.112235 -0.545215
        CHANNELS 3 Zrotation Xrotation Yrotation
        JOINT Head
        {
          OFFSET 5.557950 12.043674 3.016607
          CHANNELS 3 Zrotation Xrotation Yrotation
          End Site
          {
            OFFSET 0 0 0
          }
        }
      }
      JOINT ShoulderLeft
      {
        OFFSET -10.068251 -3.787479 -12.932336
        CHANNELS 3 Zrotation Xrotation Yrotation
        JOINT ElbowLeft
        {
          OFFSET -4.050458 -19.924863 -5.351473
          CHANNELS 3 Zrotation Xrotation Yrotation
          JOINT WristLeft
          {
            OFFSET 5.100250 -19.321808 -2.088799
            CHANNELS 3 Zrotation Xrotation Yrotation
            JOINT HandLeft
            {
              OFFSET 2.564821 -8.127255 0.545919
              CHANNELS 3 Zrotation Xrotation Yrotation
              JOINT HandTipLeft
              {
                OFFSET 2.631140 -6.605132 -1.215382
                CHANNELS 3 Zrotation Xrotation Yrotation
                End Site
                {
                  OFFSET 0 0 0
                }
              }
              JOINT ThumbLeft
              {
                OFFSET -2.729048 -0.603334 -1.062210
                CHANNELS 3 Zrotation Xrotation Yrotation
                End Site
                {
                  OFFSET 0 0 0
                }
              }
            }
          }
        }
      }
      JOINT ShoulderRight
      {
        OFFSET 12.607228 -9.638662 9.542460
        CHANNELS 3 Zrotation Xrotation Yrotation
        JOINT ElbowRight
        {
          OFFSET 2.745493 -24.641133 0.679090
          CHANNELS 3 Zrotation Xrotation Yrotation
          JOINT WristRight
          {
            OFFSET 0.228781 -19.290157 -0.551347
            CHANNELS 3 Zrotation Xrotation Yrotation
            JOINT HandRight
            {
              OFFSET -0.251247 -4.076510 -2.004344
              CHANNELS 3 Zrotation Xrotation Yrotation
              JOINT HandTipRight
              {
                OFFSET 1.776770 -5.086701 -0.097963
                CHANNELS 3 Zrotation Xrotation Yrotation
                End Site
                {
                  OFFSET 0 0 0
                }
              }
              JOINT ThumbRight
              {
                OFFSET 2.923384 -1.190032 -1.631691
                CHANNELS 3 Zrotation Xrotation Yrotation
                End Site
                {
                  OFFSET 0 0 0
                }
              }
            }
          }
        }
      }
    }
  }
  JOINT HipLeft
  {
    OFFSET -3.632332 1.325369 -8.340434
    CHANNELS 3 Zrotation Xrotation Yrotation
    JOINT KneeLeft
    {
      OFFSET -13.248782 -37.448266 -0.763430
      CHANNELS 3 Zrotation Xrotation Yrotation
      JOINT AnkleLeft
      {
        OFFSET -6.009238 -29.307510 0.027216
        CHANNELS 3 Zrotation Xrotation Yrotation
        JOINT FootLeft
        {
          OFFSET 0.046384 -6.955442 -7.646923
          CHANNELS 3 Zrotation Xrotation Yrotation
          End Site
          {
            OFFSET 0 0 0
          }
        }
      }
    }
  }
  JOINT HipRight
  {
    OFFSET 3.619074 -0.496733 1.419515
    CHANNELS 3 Zrotation Xrotation Yrotation
    JOINT KneeRight
    {
      OFFSET -2.861585 -34.758062 7.293826
      CHANNELS 3 Zrotation Xrotation Yrotation
      JOINT AnkleRight
      {
        OFFSET -2.821578 -28.343372 4.326022
        CHANNELS 3 Zrotation Xrotation Yrotation
        JOINT FootRight
        {
          OFFSET 4.890197 -6.723844 -3.395048
          CHANNELS 3 Zrotation Xrotation Yrotation
          End Site
          {
            OFFSET 0 0 0
          }
        }
      }
    }
  }
}
MOTION
Frames: 15
Frame Time: 0.033333
4.025683 73.095937 344.444579 -0.000000 0.000000 -53.388545 0.000000 0.000000 53.388545 -0.000000 0.000000 0.000000 -0.000000 0.000000 0.000000 0.000000 0.000000 0.000000 -0.000000 0.000000 0.000000 -0.000000 0.000000 0.000000 -0.000000 0.000000 0.000000 -0.000000 0.000000 0.000000 0.000000 0.000000 0.000000 0.000000 0.000000 0.000000 -0.000000 0.000000 0.000000 -0.000000 0.000000 0.000000 -0.000000 0.000000 0.000000 -0.000000 0.000000 0.000000 0.000000 0.000000 0.000000 0.000000 0.000000 0.000000 0.000000 0.000000 53.388545 -0.000000 0.000000 0.000000 -0.000000 0.000000 0.000000 0.000000 0.000000 0.000000 0.000000 0.000000 53.388545 -0.000000 0.000000 0.000000 -0.000000 0.000000 0.000000 0.000000 0.000000 0.000000
4.079498 73.083533 344.439936 0.045344 0.047143 -53.201287 0.010589 -0.064548 53.201274 -0.000000 0.000000 0.000000 -0.000000 0.000000 0.000000 0.000000 0.000000 0.000000 -0.000000 0.000000 0.000000 -0.000000 0.000000 0.000000 -0.486663 1.483861 0.442896 1.298934 -1.209274 -0.448797 0.000000 0.000000 0.000000 0.000000 0.000000 0.000000 -0.000000 0.000000 0.000000 0.499584 0.912156 -0.007435 -0.894832 -2.556378 0.285102 -1.804972 2.159831 -0.008826 0.000000 0.000000 0.000000 0.000000 0.000000 0.000000 0.010589 -0.064548 53.201274 -0.000000 0.000000 0.000000 -0.000000 0.000000 0.000000 0.000000 0.000000 0.000000 0.010589 -0.064548 53.201274 -0.000000 0.000000 0.000000 0.784337 0.308265 -0.172854 0.000000 0.000000 0.000000
4.125171 73.079192 344.437119 0.100768 0.085626 -53.073486 0.007910 -0.131998 53.073420 -0.000000 0.000000 0.000000 0.267782 -0.826513 0.317202 0.000000 0.000000 0.000000 -0.000000 0.000000 0.000000 -0.000000 0.000000 0.000000 -0.933459 2.741689 0.828477 2.327557 -2.036794 -0.693184 0.000000 0.000000 0.000000 0.000000 0.000000 0.000000 -0.000000 0.000000 0.000000 0.879652 1.698808 -0.018026 -1.592195 -4.882557 0.503846 -3.500256 4.254831 0.154400 0.000000 0.000000 0.000000 0.000000 0.000000 0.000000 0.007910 -0.131998 53.073420 -0.000000 0.000000 0.000000 -0.000000 0.000000 0.000000 0.000000 0.000000 0.000000 0.007910 -0.131998 53.073420 -0.000000 0.000000 0.000000 1.319459 0.587647 -0.242968 0.000000 0.000000 0.000000
4.162702 73.082914 344.436129 0.166296 0.115445 -53.005005 -0.007864 -0.202287 53.004824 -0.000000 0.000000 0.000000 0.324878 -1.229371 0.491429 0.000000 0.000000 0.000000 -0.000000 0.000000 0.000000 -0.693402 0.703340 0.265123 -0.623985 3.061485 0.875246 3.094349 -2.460204 -0.756498 0.000000 0.000000 0.000000 0.000000 0.000000 0.000000 -0.000000 0.000000 0.000000 1.163446 2.391465 -0.029152 -2.121269 -7.029834 0.670336 -5.049952 6.294856 0.461325 0.000000 0.000000 0.000000 0.000000 0.000000 0.000000 -0.007864 -0.202287 53.004824 -0.000000 0.000000 0.000000 -0.000000 0.000000 0.000000 0.000000 0.000000 0.000000 -0.007864 -0.202287 53.004824 -0.000000 0.000000 0.000000 1.606439 0.840344 -0.208879 0.000000 0.000000 0.000000
4.192090 73.094700 344.436965 0.241956 0.136593 -52.995756 -0.036546 -0.275435 52.995380 0.778121 0.437263 0.054501 -0.449862 -2.061851 0.617253 0.000000 0.000000 0.000000 -0.778559 -0.436483 -0.060436 -1.054555 0.927309 0.367892 -0.596763 3.612992 1.017579 3.601897 -2.461615 -0.654300 0.000000 0.000000 0.000000 0.000000 0.000000 0.000000 -0.778559 -0.436483 -0.060436 1.366971 3.013251 -0.039247 -2.500716 -9.040455 0.794402 -6.419360 8.292005 0.883253 0.000000 0.000000 0.000000 0.000000 0.000000 0.000000 -0.036546 -0.275435 52.995380 -0.000000 0.000000 0.000000 -0.000000 0.000000 0.000000 0.000000 0.000000 0.000000 -0.036546 -0.275435 52.995380 -0.000000 0.000000 0.000000 1.646361 1.067234 -0.069418 0.000000 0.000000 0.000000
4.213337 73.114549 344.439628 0.327779 0.149059 -53.045696 -0.077940 -0.351543 53.045031 0.954652 0.476729 0.066840 -0.673873 -2.489242 0.795403 0.000000 0.000000 0.000000 -0.955240 -0.475549 -0.074776 -1.485408 1.150741 0.480391 -0.438501 3.913337 1.074956 3.847472 -2.026858 -0.394110 0.000000 0.000000 0.000000 0.000000 0.000000 0.000000 -0.955240 -0.475549 -0.074776 1.501252 3.581725 -0.047310 -2.741255 -10.951047 0.883069 -7.576030 10.261341 1.391409 0.000000 0.000000 0.000000 0.000000 0.000000 0.000000 -0.077940 -0.351543 53.045031 -0.000000 0.000000 0.000000 -0.000000 0.000000 0.000000 0.000000 0.000000 0.000000 -0.077940 -0.351543 53.045031 -0.000000 0.000000 0.000000 1.440157 1.267803 0.176356 0.000000 0.000000 0.000000
4.236660 73.157723 344.448225 0.443050 0.159277 -53.269827 0.013682 0.423088 53.293949 0.387195 0.107302 0.062753 -1.012240 -2.957730 1.007133 0.000000 0.000000 0.000000 -1.178273 -0.506975 -0.092956 -2.692572 1.586152 0.750651 1.419955 3.569104 0.901601 3.027702 0.960676 0.697642 0.000000 0.000000 0.000000 0.000000 0.000000 0.000000 -1.178273 -0.506975 -0.092956 1.611606 4.443152 -0.055796 -2.865239 -14.174418 0.976094 -9.991319 13.279728 2.414585 0.000000 0.000000 0.000000 0.000000 0.000000 0.000000 -0.137316 -0.450340 53.268671 -0.000000 0.000000 0.000000 -0.000000 0.000000 0.000000 0.000000 0.000000 0.000000 -0.137316 -0.450340 53.268671 -0.000000 0.000000 0.000000 0.915034 1.482186 0.596801 0.000000 0.000000 0.000000
4.248103 73.203769 344.457263 0.558476 0.151691 -53.461494 0.044203 0.469898 53.490907 0.399830 0.086813 0.071392 -1.377709 -3.339948 1.222171 0.000000 0.000000 0.000000 -1.363002 -0.480500 -0.107750 -3.363698 1.883137 0.921648 1.887455 2.977598 0.655693 2.566286 3.266674 1.673413 0.000000 0.000000 0.000000 0.000000 0.000000 0.000000 -1.363002 -0.480500 -0.107750 1.567997 5.013589 -0.053894 -2.543968 -15.788895 0.917590 -10.883385 14.987678 3.179460 0.000000 0.000000 0.000000 0.000000 0.000000 0.000000 -0.210629 -0.539019 53.459764 -0.000000 0.000000 0.000000 -0.000000 0.000000 0.000000 0.000000 0.000000 0.000000 -0.210629 -0.539019 53.459764 -0.000000 0.000000 0.000000 0.182980 1.529136 1.009361 0.000000 0.000000 0.000000
4.243016 73.240535 344.458667 0.675090 0.141670 -53.595496 0.075902 0.478576 53.629402 0.383234 0.062321 0.076573 -1.683977 -3.666030 1.428918 0.000000 0.000000 0.000000 -1.489366 -0.424221 -0.117519 -3.827813 2.043456 1.028773 2.041438 2.570074 0.472389 2.007513 4.283678 2.229878 0.000000 0.000000 0.000000 0.000000 0.000000 0.000000 -1.489366 -0.424221 -0.117519 1.412228 5.262328 -0.042750 -1.592662 -17.657739 0.766895 -9.889700 17.292941 3.688860 0.000000 0.000000 0.000000 0.000000 0.000000 0.000000 -0.286649 -0.627417 53.593092 -0.000000 0.000000 0.000000 -0.000000 0.000000 0.000000 0.000000 0.000000 0.000000 -0.286649 -0.627417 53.593092 -0.000000 0.000000 0.000000 -0.964244 1.714032 1.745366 0.000000 0.000000 0.000000
4.222079 73.270673 344.463136 0.783761 0.112065 -53.723381 0.102418 0.464760 53.761101 0.359088 0.033329 0.080018 -1.993472 -3.905913 1.622242 0.000000 0.000000 0.000000 -1.578812 -0.334752 -0.123930 -3.946614 2.085646 1.056785 1.455047 2.172808 0.283955 2.520626 4.203909 2.274510 0.000000 0.000000 0.000000 0.000000 0.000000 0.000000 -1.578812 -0.334752 -0.123930 1.386737 5.425526 -0.040891 -1.498423 -18.514108 0.789077 -8.337980 21.568584 4.865358 0.000000 0.000000 0.000000 0.000000 0.000000 0.000000 -0.373419 -0.698143 53.720339 -0.000000 0.000000 0.000000 -0.000000 0.000000 0.000000 0.000000 0.000000 0.000000 -0.373419 -0.698143 53.720339 -0.000000 0.000000 0.000000 -2.124308 1.653178 2.319888 0.000000 0.000000 0.000000
4.177277 73.288383 344.470466 0.865347 0.062943 -53.823426 0.123321 0.435733 53.863906 0.326864 0.007670 0.080960 -2.302790 -4.043270 1.792058 0.000000 0.000000 0.000000 -1.617213 -0.225027 -0.125998 -3.711135 1.987277 0.996976 0.446336 1.832161 0.126298 1.706363 3.555078 2.344551 0.000000 0.000000 0.000000 0.000000 0.000000 0.000000 -1.617213 -0.225027 -0.125998 1.288745 5.232141 -0.033578 -2.083153 -17.102349 0.922355 -4.692452 18.246589 2.578466 0.000000 0.000000 0.000000 0.000000 0.000000 0.000000 -0.460015 -0.735652 53.819998 -0.000000 0.000000 0.000000 -0.000000 0.000000 0.000000 0.000000 0.000000 0.000000 -0.460015 -0.735652 53.819998 -0.000000 0.000000 0.000000 -2.883994 1.829684 2.862137 0.000000 0.000000 0.000000
4.105596 73.288393 344.477583 0.902621 -0.002511 -53.930293 0.138845 0.412891 53.972345 0.291038 -0.014832 0.079769 -2.558255 -4.087459 1.923283 0.000000 0.000000 0.000000 -1.609398 -0.110290 -0.124359 -3.710284 1.882625 0.965734 0.314426 1.751946 0.082906 0.212474 3.242660 2.513333 0.000000 0.000000 0.000000 0.000000 0.000000 0.000000 -1.609398 -0.110290 -0.124359 1.022832 4.827491 -0.015044 -2.080399 -15.794668 0.971806 -1.925027 18.905735 2.321218 0.000000 0.000000 0.000000 0.000000 0.000000 0.000000 -0.533494 -0.728101 53.926923 -0.000000 0.000000 0.000000 -0.000000 0.000000 0.000000 0.000000 0.000000 0.000000 -0.533494 -0.728101 53.926923 -0.000000 0.000000 0.000000 -3.239740 2.123869 3.277031 0.000000 0.000000 0.000000
4.011118 73.289561 344.483615 0.895491 -0.077882 -54.114689 0.141641 0.397057 54.156825 0.277809 -0.033111 0.078286 -2.810235 -4.039011 2.014205 0.000000 0.000000 0.000000 -1.578053 -0.003871 -0.121004 -3.594729 1.792843 0.924360 0.043783 1.705428 0.060818 1.162207 3.109420 2.313135 0.000000 0.000000 0.000000 0.000000 0.000000 0.000000 -1.578053 -0.003871 -0.121004 0.728833 4.648900 0.004744 -1.676871 -14.762788 0.896701 -1.590169 20.434380 3.180137 0.000000 0.000000 0.000000 0.000000 0.000000 0.000000 -0.588027 -0.679860 54.111809 -0.000000 0.000000 0.000000 -0.000000 0.000000 0.000000 0.000000 0.000000 0.000000 -0.588027 -0.679860 54.111809 -0.000000 0.000000 0.000000 -3.801903 2.546919 3.906548 0.000000 0.000000 0.000000
3.902122 73.294898 344.507616 0.843286 -0.155168 -54.371273 0.138929 0.390327 54.412037 0.284536 -0.044720 0.076436 -2.926512 -4.048281 2.102572 0.000000 0.000000 0.000000 -1.525867 0.088347 -0.116245 -3.526692 1.735894 0.898883 0.004585 2.020279 0.176135 0.780994 2.613612 2.189843 0.000000 0.000000 0.000000 0.000000 0.000000 0.000000 -1.525867 0.088347 -0.116245 0.363274 4.543851 0.029089 -1.513469 -13.328025 0.895522 0.491113 19.264527 2.658914 0.000000 0.000000 0.000000 0.000000 0.000000 0.000000 -0.617375 -0.595036 54.369209 -0.000000 0.000000 0.000000 -0.000000 0.000000 0.000000 0.000000 0.000000 0.000000 -0.617375 -0.595036 54.369209 -0.000000 0.000000 0.000000 -4.367865 2.897329 4.489615 0.000000 0.000000 0.000000
3.792163 73.302319 344.547625 0.767367 -0.232978 -54.686598 0.161362 0.416689 54.726302 0.319888 -0.052691 0.077461 -3.145511 -4.025623 2.184162 0.000000 0.000000 0.000000 -1.520223 0.179348 -0.115073 -3.569832 1.763366 0.912469 0.402093 2.029422 0.200987 0.939647 3.816626 2.565211 0.000000 0.000000 0.000000 0.000000 0.000000 0.000000 -1.520223 0.179348 -0.115073 0.026866 4.687343 0.053693 -1.219333 -13.017904 0.882717 -1.768616 17.057603 2.594255 0.000000 0.000000 0.000000 0.000000 0.000000 0.000000 -0.633691 -0.491500 54.685440 -0.000000 0.000000 0.000000 -0.000000 0.000000 0.000000 0.000000 0.000000 0.000000 -0.646756 0.317459 54.783111 -0.653380 -0.477168 -0.100411 -4.753864 3.482663 5.153071 0.000000 0.000000 0.000000
